<mxfile host="app.diagrams.net" agent="Mozilla/5.0 (Windows NT 10.0; Win64; x64) AppleWebKit/537.36 (KHTML, like Gecko) Chrome/138.0.0.0 Safari/537.36" version="28.0.4">
  <diagram id="soi9PR9wGb5dMhVdSGv5" name="Page-1">
    <mxGraphModel dx="2651" dy="1403" grid="1" gridSize="10" guides="1" tooltips="1" connect="1" arrows="1" fold="1" page="1" pageScale="1" pageWidth="850" pageHeight="1100" math="0" shadow="0">
      <root>
        <mxCell id="0" />
        <mxCell id="1" parent="0" />
        <mxCell id="WIG4uCwBg8CFMYNq-428-1" value="" style="rounded=0;whiteSpace=wrap;html=1;movable=0;resizable=0;rotatable=0;deletable=0;editable=0;locked=1;connectable=0;" vertex="1" parent="1">
          <mxGeometry x="240" y="210" width="303.33" height="1960" as="geometry" />
        </mxCell>
        <mxCell id="WIG4uCwBg8CFMYNq-428-2" value="" style="rounded=0;whiteSpace=wrap;html=1;movable=0;resizable=0;rotatable=0;deletable=0;editable=0;locked=1;connectable=0;" vertex="1" parent="1">
          <mxGeometry x="545" y="210" width="315" height="1960" as="geometry" />
        </mxCell>
        <mxCell id="WIG4uCwBg8CFMYNq-428-3" value="" style="endArrow=none;html=1;rounded=0;movable=1;resizable=1;rotatable=1;deletable=1;editable=1;locked=0;connectable=1;exitX=0.022;exitY=0.026;exitDx=0;exitDy=0;exitPerimeter=0;" edge="1" parent="1" source="WIG4uCwBg8CFMYNq-428-1">
          <mxGeometry width="50" height="50" relative="1" as="geometry">
            <mxPoint x="278.33" y="257.08" as="sourcePoint" />
            <mxPoint x="860" y="260" as="targetPoint" />
          </mxGeometry>
        </mxCell>
        <mxCell id="WIG4uCwBg8CFMYNq-428-4" value="&lt;font style=&quot;font-size: 25px;&quot;&gt;&lt;b&gt;ADMIN&lt;/b&gt;&lt;/font&gt;" style="text;html=1;align=center;verticalAlign=middle;whiteSpace=wrap;rounded=0;movable=1;resizable=1;rotatable=1;deletable=1;editable=1;locked=0;connectable=1;" vertex="1" parent="1">
          <mxGeometry x="366.66" y="227.07999999999998" width="60" height="30" as="geometry" />
        </mxCell>
        <mxCell id="WIG4uCwBg8CFMYNq-428-5" value="&lt;font style=&quot;font-size: 25px;&quot;&gt;&lt;b&gt;SYSTEM&lt;/b&gt;&lt;/font&gt;" style="text;html=1;align=center;verticalAlign=middle;whiteSpace=wrap;rounded=0;movable=1;resizable=1;rotatable=1;deletable=1;editable=1;locked=0;connectable=1;" vertex="1" parent="1">
          <mxGeometry x="680" y="230" width="60" height="30" as="geometry" />
        </mxCell>
        <mxCell id="WIG4uCwBg8CFMYNq-428-6" value="" style="ellipse;whiteSpace=wrap;html=1;aspect=fixed;fillColor=#330000;" vertex="1" parent="1">
          <mxGeometry x="376.67" y="270" width="30" height="30" as="geometry" />
        </mxCell>
        <mxCell id="WIG4uCwBg8CFMYNq-428-7" value="" style="edgeStyle=orthogonalEdgeStyle;rounded=0;orthogonalLoop=1;jettySize=auto;html=1;entryX=0.5;entryY=0;entryDx=0;entryDy=0;" edge="1" parent="1" source="WIG4uCwBg8CFMYNq-428-8" target="WIG4uCwBg8CFMYNq-428-15">
          <mxGeometry relative="1" as="geometry">
            <mxPoint x="640.8399999999999" y="360" as="targetPoint" />
          </mxGeometry>
        </mxCell>
        <mxCell id="WIG4uCwBg8CFMYNq-428-8" value="LOGIN" style="rounded=1;whiteSpace=wrap;html=1;" vertex="1" parent="1">
          <mxGeometry x="345.83" y="330" width="91.67" height="30" as="geometry" />
        </mxCell>
        <mxCell id="WIG4uCwBg8CFMYNq-428-9" value="" style="endArrow=classic;html=1;rounded=0;exitX=0.5;exitY=1;exitDx=0;exitDy=0;entryX=0.5;entryY=0;entryDx=0;entryDy=0;" edge="1" parent="1" source="WIG4uCwBg8CFMYNq-428-6" target="WIG4uCwBg8CFMYNq-428-8">
          <mxGeometry width="50" height="50" relative="1" as="geometry">
            <mxPoint x="340" y="500" as="sourcePoint" />
            <mxPoint x="390" y="450" as="targetPoint" />
          </mxGeometry>
        </mxCell>
        <mxCell id="WIG4uCwBg8CFMYNq-428-15" value="VALIDASI Email&lt;div&gt;dan Password&lt;/div&gt;" style="rhombus;whiteSpace=wrap;html=1;" vertex="1" parent="1">
          <mxGeometry x="644.37" y="370" width="105.42" height="70" as="geometry" />
        </mxCell>
        <mxCell id="WIG4uCwBg8CFMYNq-428-18" value="Tidak" style="text;html=1;align=center;verticalAlign=middle;whiteSpace=wrap;rounded=0;" vertex="1" parent="1">
          <mxGeometry x="580" y="380" width="60" height="20" as="geometry" />
        </mxCell>
        <mxCell id="WIG4uCwBg8CFMYNq-428-19" value="" style="edgeStyle=orthogonalEdgeStyle;rounded=0;orthogonalLoop=1;jettySize=auto;html=1;" edge="1" parent="1" source="WIG4uCwBg8CFMYNq-428-20" target="WIG4uCwBg8CFMYNq-428-24">
          <mxGeometry relative="1" as="geometry" />
        </mxCell>
        <mxCell id="WIG4uCwBg8CFMYNq-428-20" value="MENAMPILKAN HALAMAN&amp;nbsp;&lt;div&gt;DASHBOARD&lt;/div&gt;" style="rounded=1;whiteSpace=wrap;html=1;" vertex="1" parent="1">
          <mxGeometry x="617.08" y="480" width="160" height="60" as="geometry" />
        </mxCell>
        <mxCell id="WIG4uCwBg8CFMYNq-428-21" value="" style="edgeStyle=orthogonalEdgeStyle;rounded=0;orthogonalLoop=1;jettySize=auto;html=1;exitX=0.5;exitY=1;exitDx=0;exitDy=0;entryX=0.5;entryY=0;entryDx=0;entryDy=0;" edge="1" parent="1" source="WIG4uCwBg8CFMYNq-428-15" target="WIG4uCwBg8CFMYNq-428-20">
          <mxGeometry relative="1" as="geometry">
            <mxPoint x="720" y="770" as="sourcePoint" />
            <mxPoint x="720" y="820" as="targetPoint" />
          </mxGeometry>
        </mxCell>
        <mxCell id="WIG4uCwBg8CFMYNq-428-22" value="Ya" style="text;html=1;align=center;verticalAlign=middle;whiteSpace=wrap;rounded=0;rotation=0;" vertex="1" parent="1">
          <mxGeometry x="700" y="440" width="60" height="20" as="geometry" />
        </mxCell>
        <mxCell id="WIG4uCwBg8CFMYNq-428-24" value="MEMILIH MENU PRODUK" style="rounded=1;whiteSpace=wrap;html=1;" vertex="1" parent="1">
          <mxGeometry x="316.66" y="480" width="160" height="60" as="geometry" />
        </mxCell>
        <mxCell id="WIG4uCwBg8CFMYNq-428-26" value="MENAMPILKAN HALAMAN PRODUK" style="rounded=1;whiteSpace=wrap;html=1;" vertex="1" parent="1">
          <mxGeometry x="617.0799999999999" y="600" width="160" height="60" as="geometry" />
        </mxCell>
        <mxCell id="WIG4uCwBg8CFMYNq-428-27" value="" style="edgeStyle=orthogonalEdgeStyle;rounded=0;orthogonalLoop=1;jettySize=auto;html=1;exitX=0.5;exitY=1;exitDx=0;exitDy=0;entryX=0.5;entryY=0;entryDx=0;entryDy=0;" edge="1" parent="1" source="WIG4uCwBg8CFMYNq-428-63" target="WIG4uCwBg8CFMYNq-428-71">
          <mxGeometry relative="1" as="geometry">
            <mxPoint x="390.8299999999999" y="760" as="sourcePoint" />
            <mxPoint x="396.7142857142858" y="760" as="targetPoint" />
            <Array as="points" />
          </mxGeometry>
        </mxCell>
        <mxCell id="WIG4uCwBg8CFMYNq-428-57" value="MEMILIH MENU&lt;div&gt;KELOLA ULASAN&lt;/div&gt;" style="rounded=1;whiteSpace=wrap;html=1;" vertex="1" parent="1">
          <mxGeometry x="321.04" y="1790" width="157.92" height="60" as="geometry" />
        </mxCell>
        <mxCell id="WIG4uCwBg8CFMYNq-428-62" value="" style="edgeStyle=orthogonalEdgeStyle;rounded=0;orthogonalLoop=1;jettySize=auto;html=1;exitX=0;exitY=0.5;exitDx=0;exitDy=0;entryX=0.5;entryY=1;entryDx=0;entryDy=0;" edge="1" parent="1" source="WIG4uCwBg8CFMYNq-428-15" target="WIG4uCwBg8CFMYNq-428-8">
          <mxGeometry relative="1" as="geometry">
            <mxPoint x="610" y="490" as="sourcePoint" />
            <mxPoint x="610" y="540" as="targetPoint" />
          </mxGeometry>
        </mxCell>
        <mxCell id="WIG4uCwBg8CFMYNq-428-63" value="&lt;font style=&quot;font-size: 10px;&quot;&gt;VALIDASI PILIHAN&lt;br&gt;&lt;/font&gt;&lt;div&gt;&lt;font style=&quot;font-size: 10px;&quot;&gt;MENU&lt;/font&gt;&lt;/div&gt;" style="rhombus;whiteSpace=wrap;html=1;" vertex="1" parent="1">
          <mxGeometry x="334.16" y="580" width="125" height="100" as="geometry" />
        </mxCell>
        <mxCell id="WIG4uCwBg8CFMYNq-428-65" value="" style="edgeStyle=orthogonalEdgeStyle;rounded=0;orthogonalLoop=1;jettySize=auto;html=1;entryX=0.5;entryY=0;entryDx=0;entryDy=0;exitX=0.5;exitY=1;exitDx=0;exitDy=0;" edge="1" parent="1" source="WIG4uCwBg8CFMYNq-428-24" target="WIG4uCwBg8CFMYNq-428-63">
          <mxGeometry relative="1" as="geometry">
            <mxPoint x="610" y="650" as="sourcePoint" />
            <mxPoint x="470" y="650" as="targetPoint" />
          </mxGeometry>
        </mxCell>
        <mxCell id="WIG4uCwBg8CFMYNq-428-66" value="" style="edgeStyle=orthogonalEdgeStyle;rounded=0;orthogonalLoop=1;jettySize=auto;html=1;exitX=1;exitY=0.5;exitDx=0;exitDy=0;entryX=0;entryY=0.5;entryDx=0;entryDy=0;" edge="1" parent="1" source="WIG4uCwBg8CFMYNq-428-63" target="WIG4uCwBg8CFMYNq-428-26">
          <mxGeometry relative="1" as="geometry">
            <mxPoint x="490" y="730" as="sourcePoint" />
            <mxPoint x="490.1700000000001" y="770" as="targetPoint" />
          </mxGeometry>
        </mxCell>
        <mxCell id="WIG4uCwBg8CFMYNq-428-71" value="MEMILIH MENU&lt;div&gt;CEK PESANAN&lt;/div&gt;" style="rounded=1;whiteSpace=wrap;html=1;" vertex="1" parent="1">
          <mxGeometry x="316.66" y="710" width="160" height="60" as="geometry" />
        </mxCell>
        <mxCell id="WIG4uCwBg8CFMYNq-428-72" value="MENAMPILKAN HALAMAN CEK PESANAN" style="rounded=1;whiteSpace=wrap;html=1;" vertex="1" parent="1">
          <mxGeometry x="617.0799999999998" y="810" width="160" height="60" as="geometry" />
        </mxCell>
        <mxCell id="WIG4uCwBg8CFMYNq-428-73" value="&lt;font style=&quot;font-size: 9px;&quot;&gt;VALIDASI PILIHAN&lt;br&gt;&lt;/font&gt;&lt;div&gt;&lt;font style=&quot;font-size: 9px;&quot;&gt;MENU&lt;/font&gt;&lt;/div&gt;" style="rhombus;whiteSpace=wrap;html=1;" vertex="1" parent="1">
          <mxGeometry x="334.16" y="790" width="125" height="100" as="geometry" />
        </mxCell>
        <mxCell id="WIG4uCwBg8CFMYNq-428-74" value="" style="edgeStyle=orthogonalEdgeStyle;rounded=0;orthogonalLoop=1;jettySize=auto;html=1;entryX=0.5;entryY=0;entryDx=0;entryDy=0;exitX=0.5;exitY=1;exitDx=0;exitDy=0;" edge="1" parent="1" source="WIG4uCwBg8CFMYNq-428-71" target="WIG4uCwBg8CFMYNq-428-73">
          <mxGeometry relative="1" as="geometry">
            <mxPoint x="609.9999999999999" y="880" as="sourcePoint" />
            <mxPoint x="469.99999999999994" y="880" as="targetPoint" />
          </mxGeometry>
        </mxCell>
        <mxCell id="WIG4uCwBg8CFMYNq-428-75" value="" style="edgeStyle=orthogonalEdgeStyle;rounded=0;orthogonalLoop=1;jettySize=auto;html=1;exitX=1;exitY=0.5;exitDx=0;exitDy=0;entryX=0;entryY=0.5;entryDx=0;entryDy=0;" edge="1" parent="1" source="WIG4uCwBg8CFMYNq-428-73" target="WIG4uCwBg8CFMYNq-428-72">
          <mxGeometry relative="1" as="geometry">
            <mxPoint x="489.99999999999994" y="960" as="sourcePoint" />
            <mxPoint x="490.17" y="1000" as="targetPoint" />
          </mxGeometry>
        </mxCell>
        <mxCell id="WIG4uCwBg8CFMYNq-428-78" value="MEMILIH MENU&amp;nbsp;&lt;div&gt;KATEGORI&lt;/div&gt;" style="rounded=1;whiteSpace=wrap;html=1;" vertex="1" parent="1">
          <mxGeometry x="320" y="920" width="160" height="60" as="geometry" />
        </mxCell>
        <mxCell id="WIG4uCwBg8CFMYNq-428-79" value="MENAMPILKAN HALAMAN KATEGORI" style="rounded=1;whiteSpace=wrap;html=1;" vertex="1" parent="1">
          <mxGeometry x="617.0799999999998" y="1030" width="160" height="60" as="geometry" />
        </mxCell>
        <mxCell id="WIG4uCwBg8CFMYNq-428-80" value="&lt;font style=&quot;font-size: 9px;&quot;&gt;VALIDASI PILIHAN&lt;br&gt;&lt;/font&gt;&lt;div&gt;&lt;font style=&quot;font-size: 9px;&quot;&gt;MENU&lt;/font&gt;&lt;/div&gt;" style="rhombus;whiteSpace=wrap;html=1;" vertex="1" parent="1">
          <mxGeometry x="337.5" y="1010" width="125" height="100" as="geometry" />
        </mxCell>
        <mxCell id="WIG4uCwBg8CFMYNq-428-81" value="" style="edgeStyle=orthogonalEdgeStyle;rounded=0;orthogonalLoop=1;jettySize=auto;html=1;entryX=0.5;entryY=0;entryDx=0;entryDy=0;exitX=0.5;exitY=1;exitDx=0;exitDy=0;" edge="1" parent="1" source="WIG4uCwBg8CFMYNq-428-78" target="WIG4uCwBg8CFMYNq-428-80">
          <mxGeometry relative="1" as="geometry">
            <mxPoint x="613.3399999999999" y="1110" as="sourcePoint" />
            <mxPoint x="473.3399999999999" y="1110" as="targetPoint" />
          </mxGeometry>
        </mxCell>
        <mxCell id="WIG4uCwBg8CFMYNq-428-82" value="" style="edgeStyle=orthogonalEdgeStyle;rounded=0;orthogonalLoop=1;jettySize=auto;html=1;exitX=1;exitY=0.5;exitDx=0;exitDy=0;entryX=0;entryY=0.5;entryDx=0;entryDy=0;" edge="1" parent="1" source="WIG4uCwBg8CFMYNq-428-80" target="WIG4uCwBg8CFMYNq-428-79">
          <mxGeometry relative="1" as="geometry">
            <mxPoint x="493.3399999999999" y="1190" as="sourcePoint" />
            <mxPoint x="493.51" y="1230" as="targetPoint" />
          </mxGeometry>
        </mxCell>
        <mxCell id="WIG4uCwBg8CFMYNq-428-83" value="" style="edgeStyle=orthogonalEdgeStyle;rounded=0;orthogonalLoop=1;jettySize=auto;html=1;entryX=0.478;entryY=0.036;entryDx=0;entryDy=0;exitX=0.5;exitY=1;exitDx=0;exitDy=0;entryPerimeter=0;" edge="1" parent="1" source="WIG4uCwBg8CFMYNq-428-73" target="WIG4uCwBg8CFMYNq-428-78">
          <mxGeometry relative="1" as="geometry">
            <mxPoint x="420" y="970" as="sourcePoint" />
            <mxPoint x="420" y="1000" as="targetPoint" />
          </mxGeometry>
        </mxCell>
        <mxCell id="WIG4uCwBg8CFMYNq-428-84" value="MEMILIH MENU&amp;nbsp;&lt;div&gt;DISKON&lt;/div&gt;" style="rounded=1;whiteSpace=wrap;html=1;" vertex="1" parent="1">
          <mxGeometry x="320" y="1140" width="160" height="60" as="geometry" />
        </mxCell>
        <mxCell id="WIG4uCwBg8CFMYNq-428-85" value="" style="edgeStyle=orthogonalEdgeStyle;rounded=0;orthogonalLoop=1;jettySize=auto;html=1;entryX=0.5;entryY=0;entryDx=0;entryDy=0;exitX=0.5;exitY=1;exitDx=0;exitDy=0;" edge="1" parent="1" source="WIG4uCwBg8CFMYNq-428-80" target="WIG4uCwBg8CFMYNq-428-84">
          <mxGeometry relative="1" as="geometry">
            <mxPoint x="430" y="1160" as="sourcePoint" />
            <mxPoint x="430" y="1190" as="targetPoint" />
          </mxGeometry>
        </mxCell>
        <mxCell id="WIG4uCwBg8CFMYNq-428-88" value="&lt;font style=&quot;font-size: 9px;&quot;&gt;VALIDASI PILIHAN&lt;br&gt;&lt;/font&gt;&lt;div&gt;&lt;font style=&quot;font-size: 9px;&quot;&gt;MENU&lt;/font&gt;&lt;/div&gt;" style="rhombus;whiteSpace=wrap;html=1;" vertex="1" parent="1">
          <mxGeometry x="337.5" y="1220" width="125" height="100" as="geometry" />
        </mxCell>
        <mxCell id="WIG4uCwBg8CFMYNq-428-90" value="MENAMPILKAN HALAMAN DISKON" style="rounded=1;whiteSpace=wrap;html=1;" vertex="1" parent="1">
          <mxGeometry x="610" y="1240" width="160" height="60" as="geometry" />
        </mxCell>
        <mxCell id="WIG4uCwBg8CFMYNq-428-91" value="MEMILIH MENU&amp;nbsp;&lt;div&gt;DATA PELANGGAN&lt;/div&gt;" style="rounded=1;whiteSpace=wrap;html=1;" vertex="1" parent="1">
          <mxGeometry x="320" y="1350" width="160" height="60" as="geometry" />
        </mxCell>
        <mxCell id="WIG4uCwBg8CFMYNq-428-92" value="&lt;font style=&quot;font-size: 9px;&quot;&gt;VALIDASI PILIHAN&lt;br&gt;&lt;/font&gt;&lt;div&gt;&lt;font style=&quot;font-size: 9px;&quot;&gt;MENU&lt;/font&gt;&lt;/div&gt;" style="rhombus;whiteSpace=wrap;html=1;" vertex="1" parent="1">
          <mxGeometry x="337.5" y="1440" width="125" height="100" as="geometry" />
        </mxCell>
        <mxCell id="WIG4uCwBg8CFMYNq-428-93" value="MENAMPILKAN HALAMAN DATA PELANGGAN" style="rounded=1;whiteSpace=wrap;html=1;" vertex="1" parent="1">
          <mxGeometry x="610" y="1460" width="160" height="60" as="geometry" />
        </mxCell>
        <mxCell id="WIG4uCwBg8CFMYNq-428-94" value="MEMILIH MENU&amp;nbsp;&lt;div&gt;PROFIL&lt;/div&gt;" style="rounded=1;whiteSpace=wrap;html=1;" vertex="1" parent="1">
          <mxGeometry x="320" y="1570" width="160" height="60" as="geometry" />
        </mxCell>
        <mxCell id="WIG4uCwBg8CFMYNq-428-95" value="&lt;font style=&quot;font-size: 9px;&quot;&gt;VALIDASI PILIHAN&lt;br&gt;&lt;/font&gt;&lt;div&gt;&lt;font style=&quot;font-size: 9px;&quot;&gt;MENU&lt;/font&gt;&lt;/div&gt;" style="rhombus;whiteSpace=wrap;html=1;" vertex="1" parent="1">
          <mxGeometry x="337.5" y="1660" width="125" height="100" as="geometry" />
        </mxCell>
        <mxCell id="WIG4uCwBg8CFMYNq-428-96" value="MENAMPILKAN HALAMAN PROFIL" style="rounded=1;whiteSpace=wrap;html=1;" vertex="1" parent="1">
          <mxGeometry x="610" y="1680" width="160" height="60" as="geometry" />
        </mxCell>
        <mxCell id="WIG4uCwBg8CFMYNq-428-98" value="&lt;font style=&quot;font-size: 9px;&quot;&gt;VALIDASI PILIHAN&lt;br&gt;&lt;/font&gt;&lt;div&gt;&lt;font style=&quot;font-size: 9px;&quot;&gt;MENU&lt;/font&gt;&lt;/div&gt;" style="rhombus;whiteSpace=wrap;html=1;" vertex="1" parent="1">
          <mxGeometry x="337.5" y="1880" width="125" height="100" as="geometry" />
        </mxCell>
        <mxCell id="WIG4uCwBg8CFMYNq-428-99" value="MENAMPILKAN HALAMAN KELOLA ULASAN" style="rounded=1;whiteSpace=wrap;html=1;" vertex="1" parent="1">
          <mxGeometry x="610" y="1900" width="160" height="60" as="geometry" />
        </mxCell>
        <mxCell id="WIG4uCwBg8CFMYNq-428-100" value="MEMILIH MENU&lt;div&gt;LOGOUT&lt;/div&gt;" style="rounded=1;whiteSpace=wrap;html=1;" vertex="1" parent="1">
          <mxGeometry x="322.08" y="2010" width="157.92" height="60" as="geometry" />
        </mxCell>
        <mxCell id="WIG4uCwBg8CFMYNq-428-101" value="" style="edgeStyle=orthogonalEdgeStyle;rounded=0;orthogonalLoop=1;jettySize=auto;html=1;exitX=0.5;exitY=1;exitDx=0;exitDy=0;entryX=0.5;entryY=0;entryDx=0;entryDy=0;" edge="1" parent="1" source="WIG4uCwBg8CFMYNq-428-84" target="WIG4uCwBg8CFMYNq-428-88">
          <mxGeometry relative="1" as="geometry">
            <mxPoint x="500" y="1250" as="sourcePoint" />
            <mxPoint x="400" y="1220" as="targetPoint" />
          </mxGeometry>
        </mxCell>
        <mxCell id="WIG4uCwBg8CFMYNq-428-104" value="" style="edgeStyle=orthogonalEdgeStyle;rounded=0;orthogonalLoop=1;jettySize=auto;html=1;exitX=1;exitY=0.5;exitDx=0;exitDy=0;entryX=0;entryY=0.5;entryDx=0;entryDy=0;" edge="1" parent="1" source="WIG4uCwBg8CFMYNq-428-88" target="WIG4uCwBg8CFMYNq-428-90">
          <mxGeometry relative="1" as="geometry">
            <mxPoint x="490" y="1240" as="sourcePoint" />
            <mxPoint x="644" y="1240" as="targetPoint" />
          </mxGeometry>
        </mxCell>
        <mxCell id="WIG4uCwBg8CFMYNq-428-105" value="" style="edgeStyle=orthogonalEdgeStyle;rounded=0;orthogonalLoop=1;jettySize=auto;html=1;entryX=0.5;entryY=0;entryDx=0;entryDy=0;exitX=0.5;exitY=1;exitDx=0;exitDy=0;" edge="1" parent="1" source="WIG4uCwBg8CFMYNq-428-88" target="WIG4uCwBg8CFMYNq-428-91">
          <mxGeometry relative="1" as="geometry">
            <mxPoint x="490" y="1350" as="sourcePoint" />
            <mxPoint x="490" y="1380" as="targetPoint" />
          </mxGeometry>
        </mxCell>
        <mxCell id="WIG4uCwBg8CFMYNq-428-106" value="" style="edgeStyle=orthogonalEdgeStyle;rounded=0;orthogonalLoop=1;jettySize=auto;html=1;entryX=0.5;entryY=0;entryDx=0;entryDy=0;exitX=0.5;exitY=1;exitDx=0;exitDy=0;" edge="1" parent="1" source="WIG4uCwBg8CFMYNq-428-91" target="WIG4uCwBg8CFMYNq-428-92">
          <mxGeometry relative="1" as="geometry">
            <mxPoint x="500" y="1340" as="sourcePoint" />
            <mxPoint x="500" y="1370" as="targetPoint" />
          </mxGeometry>
        </mxCell>
        <mxCell id="WIG4uCwBg8CFMYNq-428-107" value="" style="edgeStyle=orthogonalEdgeStyle;rounded=0;orthogonalLoop=1;jettySize=auto;html=1;exitX=1;exitY=0.5;exitDx=0;exitDy=0;entryX=0;entryY=0.5;entryDx=0;entryDy=0;" edge="1" parent="1" source="WIG4uCwBg8CFMYNq-428-92" target="WIG4uCwBg8CFMYNq-428-93">
          <mxGeometry relative="1" as="geometry">
            <mxPoint x="510" y="1500" as="sourcePoint" />
            <mxPoint x="657" y="1500" as="targetPoint" />
          </mxGeometry>
        </mxCell>
        <mxCell id="WIG4uCwBg8CFMYNq-428-108" value="" style="edgeStyle=orthogonalEdgeStyle;rounded=0;orthogonalLoop=1;jettySize=auto;html=1;entryX=0.5;entryY=0;entryDx=0;entryDy=0;exitX=0.5;exitY=1;exitDx=0;exitDy=0;" edge="1" parent="1" source="WIG4uCwBg8CFMYNq-428-92" target="WIG4uCwBg8CFMYNq-428-94">
          <mxGeometry relative="1" as="geometry">
            <mxPoint x="480" y="1550" as="sourcePoint" />
            <mxPoint x="480" y="1580" as="targetPoint" />
          </mxGeometry>
        </mxCell>
        <mxCell id="WIG4uCwBg8CFMYNq-428-109" value="" style="endArrow=classic;html=1;rounded=0;exitX=0.5;exitY=1;exitDx=0;exitDy=0;entryX=0.5;entryY=0;entryDx=0;entryDy=0;" edge="1" parent="1" source="WIG4uCwBg8CFMYNq-428-94" target="WIG4uCwBg8CFMYNq-428-95">
          <mxGeometry width="50" height="50" relative="1" as="geometry">
            <mxPoint x="420" y="1680" as="sourcePoint" />
            <mxPoint x="470" y="1630" as="targetPoint" />
          </mxGeometry>
        </mxCell>
        <mxCell id="WIG4uCwBg8CFMYNq-428-110" value="" style="edgeStyle=orthogonalEdgeStyle;rounded=0;orthogonalLoop=1;jettySize=auto;html=1;exitX=1;exitY=0.5;exitDx=0;exitDy=0;entryX=0;entryY=0.5;entryDx=0;entryDy=0;" edge="1" parent="1" source="WIG4uCwBg8CFMYNq-428-95" target="WIG4uCwBg8CFMYNq-428-96">
          <mxGeometry relative="1" as="geometry">
            <mxPoint x="510" y="1700" as="sourcePoint" />
            <mxPoint x="657" y="1700" as="targetPoint" />
          </mxGeometry>
        </mxCell>
        <mxCell id="WIG4uCwBg8CFMYNq-428-111" value="" style="endArrow=classic;html=1;rounded=0;exitX=0.5;exitY=1;exitDx=0;exitDy=0;entryX=0.5;entryY=0;entryDx=0;entryDy=0;" edge="1" parent="1" source="WIG4uCwBg8CFMYNq-428-95" target="WIG4uCwBg8CFMYNq-428-57">
          <mxGeometry width="50" height="50" relative="1" as="geometry">
            <mxPoint x="540" y="1830" as="sourcePoint" />
            <mxPoint x="540" y="1860" as="targetPoint" />
          </mxGeometry>
        </mxCell>
        <mxCell id="WIG4uCwBg8CFMYNq-428-112" value="" style="endArrow=classic;html=1;rounded=0;exitX=0.5;exitY=1;exitDx=0;exitDy=0;entryX=0.5;entryY=0;entryDx=0;entryDy=0;" edge="1" parent="1" source="WIG4uCwBg8CFMYNq-428-57" target="WIG4uCwBg8CFMYNq-428-98">
          <mxGeometry width="50" height="50" relative="1" as="geometry">
            <mxPoint x="500" y="1870" as="sourcePoint" />
            <mxPoint x="500" y="1900" as="targetPoint" />
          </mxGeometry>
        </mxCell>
        <mxCell id="WIG4uCwBg8CFMYNq-428-113" value="" style="edgeStyle=orthogonalEdgeStyle;rounded=0;orthogonalLoop=1;jettySize=auto;html=1;exitX=1;exitY=0.5;exitDx=0;exitDy=0;entryX=0;entryY=0.5;entryDx=0;entryDy=0;" edge="1" parent="1" source="WIG4uCwBg8CFMYNq-428-98" target="WIG4uCwBg8CFMYNq-428-99">
          <mxGeometry relative="1" as="geometry">
            <mxPoint x="500" y="1960" as="sourcePoint" />
            <mxPoint x="647" y="1960" as="targetPoint" />
          </mxGeometry>
        </mxCell>
        <mxCell id="WIG4uCwBg8CFMYNq-428-114" value="" style="endArrow=classic;html=1;rounded=0;exitX=0.5;exitY=1;exitDx=0;exitDy=0;entryX=0.5;entryY=0;entryDx=0;entryDy=0;" edge="1" parent="1" source="WIG4uCwBg8CFMYNq-428-98" target="WIG4uCwBg8CFMYNq-428-100">
          <mxGeometry width="50" height="50" relative="1" as="geometry">
            <mxPoint x="480" y="1980" as="sourcePoint" />
            <mxPoint x="480" y="2010" as="targetPoint" />
          </mxGeometry>
        </mxCell>
        <mxCell id="WIG4uCwBg8CFMYNq-428-115" value="" style="group" vertex="1" connectable="0" parent="1">
          <mxGeometry x="373.74999999999994" y="2100" width="52.5" height="52.5" as="geometry" />
        </mxCell>
        <mxCell id="WIG4uCwBg8CFMYNq-428-59" value="" style="ellipse;whiteSpace=wrap;html=1;aspect=fixed;" vertex="1" parent="WIG4uCwBg8CFMYNq-428-115">
          <mxGeometry width="52.5" height="52.5" as="geometry" />
        </mxCell>
        <mxCell id="WIG4uCwBg8CFMYNq-428-60" value="" style="ellipse;whiteSpace=wrap;html=1;aspect=fixed;fillColor=#330000;" vertex="1" parent="WIG4uCwBg8CFMYNq-428-115">
          <mxGeometry x="10" y="10" width="32.5" height="32.5" as="geometry" />
        </mxCell>
        <mxCell id="WIG4uCwBg8CFMYNq-428-117" value="" style="endArrow=classic;html=1;rounded=0;exitX=0.5;exitY=1;exitDx=0;exitDy=0;entryX=0.5;entryY=0;entryDx=0;entryDy=0;" edge="1" parent="1" source="WIG4uCwBg8CFMYNq-428-100" target="WIG4uCwBg8CFMYNq-428-59">
          <mxGeometry width="50" height="50" relative="1" as="geometry">
            <mxPoint x="450" y="2110" as="sourcePoint" />
            <mxPoint x="451" y="2140" as="targetPoint" />
          </mxGeometry>
        </mxCell>
        <mxCell id="WIG4uCwBg8CFMYNq-428-118" value="Ya" style="text;html=1;align=center;verticalAlign=middle;whiteSpace=wrap;rounded=0;rotation=0;" vertex="1" parent="1">
          <mxGeometry x="550" y="610" width="36.67" height="20" as="geometry" />
        </mxCell>
        <mxCell id="WIG4uCwBg8CFMYNq-428-120" value="Ya" style="text;html=1;align=center;verticalAlign=middle;whiteSpace=wrap;rounded=0;rotation=0;" vertex="1" parent="1">
          <mxGeometry x="550" y="820" width="36.67" height="20" as="geometry" />
        </mxCell>
        <mxCell id="WIG4uCwBg8CFMYNq-428-121" value="Ya" style="text;html=1;align=center;verticalAlign=middle;whiteSpace=wrap;rounded=0;rotation=0;" vertex="1" parent="1">
          <mxGeometry x="550" y="1040" width="36.67" height="20" as="geometry" />
        </mxCell>
        <mxCell id="WIG4uCwBg8CFMYNq-428-122" value="Ya" style="text;html=1;align=center;verticalAlign=middle;whiteSpace=wrap;rounded=0;rotation=0;" vertex="1" parent="1">
          <mxGeometry x="550" y="1250" width="36.67" height="20" as="geometry" />
        </mxCell>
        <mxCell id="WIG4uCwBg8CFMYNq-428-123" value="Ya" style="text;html=1;align=center;verticalAlign=middle;whiteSpace=wrap;rounded=0;rotation=0;" vertex="1" parent="1">
          <mxGeometry x="550" y="1470" width="36.67" height="20" as="geometry" />
        </mxCell>
        <mxCell id="WIG4uCwBg8CFMYNq-428-124" value="Ya" style="text;html=1;align=center;verticalAlign=middle;whiteSpace=wrap;rounded=0;rotation=0;" vertex="1" parent="1">
          <mxGeometry x="545" y="1690" width="36.67" height="20" as="geometry" />
        </mxCell>
        <mxCell id="WIG4uCwBg8CFMYNq-428-125" value="Ya" style="text;html=1;align=center;verticalAlign=middle;whiteSpace=wrap;rounded=0;rotation=0;" vertex="1" parent="1">
          <mxGeometry x="543.33" y="1910" width="36.67" height="20" as="geometry" />
        </mxCell>
        <mxCell id="WIG4uCwBg8CFMYNq-428-126" value="Tidak" style="text;html=1;align=center;verticalAlign=middle;whiteSpace=wrap;rounded=0;" vertex="1" parent="1">
          <mxGeometry x="406.67" y="680" width="33.33" height="20" as="geometry" />
        </mxCell>
        <mxCell id="WIG4uCwBg8CFMYNq-428-127" value="Tidak" style="text;html=1;align=center;verticalAlign=middle;whiteSpace=wrap;rounded=0;" vertex="1" parent="1">
          <mxGeometry x="399.16" y="890" width="60" height="20" as="geometry" />
        </mxCell>
        <mxCell id="WIG4uCwBg8CFMYNq-428-128" value="Tidak" style="text;html=1;align=center;verticalAlign=middle;whiteSpace=wrap;rounded=0;" vertex="1" parent="1">
          <mxGeometry x="406.67" y="1110" width="60" height="20" as="geometry" />
        </mxCell>
        <mxCell id="WIG4uCwBg8CFMYNq-428-129" value="Tidak" style="text;html=1;align=center;verticalAlign=middle;whiteSpace=wrap;rounded=0;" vertex="1" parent="1">
          <mxGeometry x="406.67" y="1320" width="60" height="20" as="geometry" />
        </mxCell>
        <mxCell id="WIG4uCwBg8CFMYNq-428-130" value="Tidak" style="text;html=1;align=center;verticalAlign=middle;whiteSpace=wrap;rounded=0;" vertex="1" parent="1">
          <mxGeometry x="406.67" y="1540" width="60" height="20" as="geometry" />
        </mxCell>
        <mxCell id="WIG4uCwBg8CFMYNq-428-131" value="Tidak" style="text;html=1;align=center;verticalAlign=middle;whiteSpace=wrap;rounded=0;" vertex="1" parent="1">
          <mxGeometry x="406.67" y="1760" width="60" height="20" as="geometry" />
        </mxCell>
        <mxCell id="WIG4uCwBg8CFMYNq-428-132" value="Tidak" style="text;html=1;align=center;verticalAlign=middle;whiteSpace=wrap;rounded=0;" vertex="1" parent="1">
          <mxGeometry x="406.67" y="1990" width="60" height="20" as="geometry" />
        </mxCell>
      </root>
    </mxGraphModel>
  </diagram>
</mxfile>
